<?xml version="1.0" encoding="utf-8"?>
<!-- Generator: Adobe Illustrator 21.0.0, SVG Export Plug-In . SVG Version: 6.00 Build 0)  -->
<svg version="1.1" id="Layer_1" xmlns="http://www.w3.org/2000/svg" xmlns:xlink="http://www.w3.org/1999/xlink" x="0px" y="0px"
	 width="811.7px" height="146.9px" viewBox="0 0 811.7 146.9" style="enable-background:new 0 0 811.7 146.9;" xml:space="preserve"
	>
<style type="text/css">
	.st0{fill:#FFFFFF;}
</style>
<path class="st0" d="M407,44.4L407,5.5l28.5,0.1L407,44.4 M419.8,40l70.5,0l-73.4,101.4l-20.7,0l-63.7-88.6l26.2,0l48,66.7
	l43.4-60.2h-19.2l-24.1,33.6V57.8L419.8,40z M109.5,120.3c0,4-1.5,7.5-4.5,10.6c-3,3-6.6,4.5-10.7,4.5H5.5v-19.1h83.2v-13.4H20.8
	c-4.1,0-7.7-1.5-10.7-4.5c-3.1-3-4.6-6.5-4.6-10.6v-20c0-4.1,1.5-7.6,4.6-10.6c3.1-3,6.6-4.5,10.7-4.5h85.9v19.1H26.3v11.9h68
	c4,0,7.6,1.5,10.6,4.6c3.1,3,4.6,6.5,4.6,10.5V120.3z M726.8,120.3c0,4-1.5,7.5-4.5,10.6c-3,3-6.6,4.5-10.7,4.5h-88.9v-19.1H706
	v-13.4h-67.9c-4.1,0-7.7-1.5-10.7-4.5c-3-3-4.6-6.5-4.6-10.6v-20c0-4.1,1.5-7.6,4.6-10.6c3.1-3,6.6-4.5,10.7-4.5h85.9v19.1h-80.3
	v11.9h68c4,0,7.6,1.5,10.6,4.6c3,3,4.6,6.5,4.6,10.5V120.3z M240.4,135.4h-88.8c-4,0-7.6-1.5-10.6-4.5c-3.1-3-4.6-6.5-4.6-10.6V67.8
	c0-4.1,1.5-7.6,4.6-10.6c3.1-3,6.6-4.5,10.6-4.5h73.6c4,0,7.6,1.5,10.6,4.5c3.1,3,4.6,6.6,4.6,10.5v35.1h-83.2v13.4h83.2V135.4z
	 M219.6,71.9h-62.4v11.9h62.4V71.9z M594.6,135.4h-88.8c-4,0-7.6-1.5-10.6-4.5c-3.1-3-4.6-6.5-4.6-10.6V67.8c0-4.1,1.5-7.6,4.6-10.6
	c3-3,6.6-4.5,10.6-4.5h73.6c4,0,7.6,1.5,10.6,4.5c3,3,4.6,6.6,4.6,10.5v35.1h-83.2v13.4h83.2V135.4z M573.8,71.9h-62.4v11.9h62.4
	V71.9z M334.8,73.4h-43.1v62h-20.8V67.8c0-4,1.5-7.6,4.6-10.6c3-3,6.6-4.5,10.7-4.5h34.2L334.8,73.4z M806.2,135.4h-36.7
	c-4.1,0-7.7-1.5-10.7-4.5c-3.1-3-4.6-6.5-4.6-10.6V32.1H775v20.7h31.3v19.1H775v44.4h31.3V135.4z"/>
</svg>
